<svg width="569" height="427" viewBox="0 0 569 427" fill="none" xmlns="http://www.w3.org/2000/svg">
<path d="M313.141 245.982C313.151 241.571 316.729 238 321.141 238H561C565.418 238 569 241.582 569 246V300.99C569 305.412 565.412 308.995 560.99 308.99L321.008 308.685C316.586 308.679 313.008 305.088 313.018 300.667L313.141 245.982Z" fill="#F03E39"/>
<g filter="url(#filter0_f_2233_762)">
<path d="M333.74 276.402L369.882 239.125L385.356 254.203L344.417 296.216L333.74 276.402Z" fill="black"/>
</g>
<path d="M412.808 252.991L413.792 272.55L432.697 267.442L414.399 274.421L425.1 290.823L412.808 275.577L400.516 290.823L411.217 274.421L392.919 267.442L411.825 272.55L412.808 252.991Z" fill="black"/>
<rect x="449.405" y="237.96" width="1.30704" height="71.2338" fill="black"/>
<rect x="374.904" y="237.96" width="1.30704" height="71.2338" fill="black"/>
<path d="M294.795 238.839C293.998 236.079 294.742 233.104 296.744 231.044L505.514 16.2041C508.596 13.0324 513.667 12.9632 516.835 16.0497L556.69 54.8858C559.854 57.9693 559.919 63.0342 556.836 66.1985L325.839 303.256C321.557 307.651 314.125 305.787 312.423 299.892L294.795 238.839Z" fill="#F03E39"/>
<path d="M342.581 228.959L343.025 228.504L343.808 229.268L343.406 229.681C343.233 229.857 343.202 229.991 343.412 230.196L343.556 230.336L344.254 229.62L345.728 231.056L344.143 232.682L342.534 231.114C341.827 230.425 341.883 229.675 342.581 228.959ZM344.584 226.904L345.02 226.457L345.803 227.221L345.401 227.633C345.228 227.81 345.205 227.935 345.416 228.141L345.559 228.28L346.257 227.564L347.731 229.001L346.138 230.635L344.529 229.067C343.822 228.377 343.887 227.62 344.584 226.904ZM354.263 228.433L352.432 230.312L345.49 226.143L346.87 224.727L350.736 227.165L352.163 228.178L352.253 228.085L351.27 226.617L348.988 222.554L350.818 220.675L354.931 222.86L356.424 223.805L356.514 223.713L355.465 222.312L352.928 218.51L354.275 217.128L358.614 223.968L356.783 225.847L353.14 223.939L351.128 222.751L351.038 222.843L352.278 224.824L354.263 228.433ZM363.261 219.368C361.438 221.238 359.16 221.284 357.399 219.569C355.638 217.853 355.625 215.574 357.448 213.703C359.312 211.791 361.582 211.753 363.343 213.469C365.104 215.185 365.125 217.456 363.261 219.368ZM362.048 218.186C363.255 216.947 363.285 216.04 362.029 214.817C360.774 213.594 359.868 213.647 358.661 214.886C357.454 216.124 357.449 217.006 358.704 218.229C359.96 219.452 360.841 219.424 362.048 218.186ZM369.592 212.703L367.761 214.582L360.82 210.412L362.199 208.997L366.065 211.434L367.493 212.447L367.583 212.354L366.599 210.886L364.317 206.823L366.148 204.944L370.26 207.129L371.753 208.075L371.844 207.982L370.794 206.581L368.258 202.779L369.604 201.398L373.943 208.238L372.113 210.116L368.469 208.209L366.457 207.02L366.367 207.113L367.607 209.093L369.592 212.703ZM373.094 203.143L372.659 203.589L371.875 202.826L372.277 202.413C372.442 202.245 372.473 202.111 372.262 201.906L372.119 201.766L371.421 202.482L369.947 201.046L371.532 199.42L373.141 200.988C373.848 201.677 373.792 202.427 373.094 203.143ZM377.165 198.965L376.73 199.411L375.947 198.648L376.349 198.235C376.521 198.058 376.545 197.933 376.334 197.728L376.191 197.588L375.493 198.304L374.019 196.868L375.611 195.233L377.22 196.801C377.928 197.491 377.863 198.249 377.165 198.965ZM375.17 201.012L374.735 201.459L373.952 200.695L374.354 200.282C374.518 200.114 374.55 199.98 374.339 199.775L374.196 199.635L373.498 200.352L372.024 198.915L373.608 197.289L375.217 198.857C375.925 199.547 375.868 200.296 375.17 201.012ZM386.357 195.499L385.118 196.771L383.247 194.949L377.035 193.773L378.553 192.214L381.256 192.745L382.474 193.012L382.564 192.919L382.265 191.709L381.665 189.021L383.192 187.454L384.495 193.685L386.357 195.499ZM391.988 189.89C390.165 191.76 387.886 191.806 386.125 190.09C384.365 188.375 384.352 186.095 386.174 184.225C388.038 182.313 390.309 182.275 392.069 183.991C393.83 185.707 393.851 187.977 391.988 189.89ZM390.774 188.708C391.981 187.469 392.011 186.562 390.756 185.339C389.501 184.116 388.594 184.169 387.388 185.407C386.181 186.646 386.176 187.528 387.431 188.751C388.686 189.974 389.568 189.946 390.774 188.708ZM398.173 183.543C396.383 185.379 394.545 185.411 393.029 183.933L389.743 180.732L390.975 179.468L394.168 182.579C395.128 183.515 395.826 183.49 396.943 182.344C398.068 181.19 398.067 180.499 397.107 179.563L393.914 176.452L395.145 175.188L398.431 178.39C399.947 179.868 399.971 181.698 398.173 183.543ZM402.641 178.789L401.41 180.053L395.765 174.552L398.803 171.435C400.157 170.045 401.544 169.852 402.623 170.903C403.541 171.798 403.571 172.862 402.638 174.022L402.705 174.088C403.333 173.714 403.791 173.783 404.392 173.958L406.705 174.619L405.277 176.085L403.055 175.431C402.396 175.232 402.047 175.303 401.407 175.96L400.594 176.794L402.641 178.789ZM398.134 174.397L399.642 175.866L401.44 174.021C402.023 173.423 402.117 172.989 401.527 172.415C400.971 171.873 400.515 171.953 399.932 172.552L398.134 174.397ZM411.261 170.112C409.447 171.974 407.176 172.011 405.415 170.296C403.655 168.58 403.634 166.309 405.448 164.447C407.156 162.695 409.132 162.42 410.564 163.815L410.691 163.939L409.319 165.345L409.193 165.222C408.452 164.5 407.687 164.576 406.686 165.604C405.479 166.843 405.465 167.733 406.721 168.956C407.976 170.179 408.866 170.143 410.073 168.904C411.074 167.877 411.131 167.111 410.389 166.388L410.263 166.265L411.634 164.858L411.76 164.981C413.193 166.377 412.977 168.351 411.261 170.112ZM419.025 161.976L414.518 166.601L408.874 161.1L410.105 159.837L414.612 164.229L417.888 160.868L419.025 161.976ZM420.753 160.204L419.521 161.467L413.877 155.967L415.108 154.703L420.753 160.204ZM426.052 154.765L421.397 159.542L415.753 154.041L420.408 149.265L421.545 150.373L418.121 153.886L419.225 154.962L422.525 151.575L423.654 152.675L420.354 156.062L421.491 157.17L424.915 153.657L426.052 154.765ZM427.84 152.931L426.608 154.194L420.964 148.694L422.278 147.346L426.919 147.926L428.862 148.309L428.952 148.216L427.757 147.167L425.036 144.515L426.268 143.251L431.912 148.752L430.598 150.1L425.875 149.554L424.115 149.235L424.033 149.32L425.119 150.279L427.84 152.931ZM435.628 144.939L434.396 146.203L429.889 141.811L427.845 143.908L426.707 142.8L432.027 137.341L433.165 138.449L431.121 140.547L435.628 144.939ZM440.694 139.909C439.027 141.619 437.417 141.923 436.103 140.642L436.052 140.593L437.284 139.329L437.435 139.477C437.958 139.986 438.423 139.93 439.539 138.784C440.525 137.774 440.603 137.39 440.224 137.02C439.878 136.684 439.563 136.754 438.895 137.237L437.125 138.599C435.979 139.454 434.891 139.56 433.973 138.665C433.122 137.836 432.902 136.275 434.749 134.379C436.44 132.644 438.029 132.615 439.217 133.772L439.267 133.822L438.028 135.094L437.91 134.979C437.37 134.453 436.872 134.51 435.78 135.63C434.894 136.54 434.8 136.991 435.162 137.344C435.49 137.664 435.789 137.593 436.333 137.204L438.129 135.866C439.563 134.8 440.621 134.944 441.396 135.699C442.314 136.594 442.442 138.115 440.694 139.909Z" fill="black"/>
<path d="M56.6392 251.595L521.348 4.50527C525.249 2.43102 530.093 3.91197 532.167 7.81308L558.192 56.7584C560.266 60.6595 558.785 65.5035 554.884 67.5778L90.1754 314.668L56.6392 251.595Z" fill="black"/>
<g clip-path="url(#clip0_2233_762)">
<path d="M335.799 143.222L334.357 143.989C333.879 144.243 333.697 144.837 333.952 145.315C334.206 145.793 334.799 145.974 335.277 145.72L335.854 145.413C336.332 145.159 336.926 145.341 337.18 145.819C337.434 146.297 337.253 146.89 336.775 147.144L335.332 147.911M334.339 143.259L334.645 143.836M336.486 147.298L336.793 147.875M339.028 143.726L339.034 143.723M332.104 147.408L332.109 147.405M328.63 146.442L330.961 150.828C331.305 151.474 331.477 151.797 331.734 151.977C331.96 152.135 332.231 152.218 332.507 152.213C332.82 152.208 333.143 152.036 333.79 151.692L341.637 147.52C342.284 147.176 342.607 147.004 342.787 146.747C342.945 146.521 343.028 146.251 343.023 145.975C343.017 145.661 342.846 145.338 342.502 144.691L340.17 140.306C339.827 139.66 339.655 139.336 339.398 139.157C339.172 138.998 338.901 138.916 338.625 138.92C338.311 138.926 337.988 139.098 337.342 139.441L329.494 143.614C328.848 143.958 328.525 144.129 328.345 144.386C328.187 144.613 328.104 144.883 328.109 145.159C328.114 145.473 328.286 145.796 328.63 146.442ZM339.317 143.573C339.401 143.732 339.341 143.93 339.181 144.014C339.022 144.099 338.824 144.039 338.74 143.879C338.655 143.72 338.715 143.522 338.875 143.437C339.034 143.353 339.232 143.413 339.317 143.573ZM332.392 147.254C332.477 147.414 332.416 147.611 332.257 147.696C332.098 147.781 331.9 147.72 331.815 147.561C331.73 147.402 331.791 147.204 331.95 147.119C332.11 147.034 332.308 147.095 332.392 147.254Z" stroke="#F03E39" stroke-width="1.30704" stroke-linecap="round" stroke-linejoin="round"/>
</g>
<circle cx="335.566" cy="145.567" r="15.3578" transform="rotate(-28 335.566 145.567)" stroke="#F03E39" stroke-width="0.653521"/>
<path d="M358.133 127.567L356.753 124.97L360.928 122.75L360.188 121.358L356.013 123.578L355.179 122.01L359.51 119.707L358.764 118.305L352.875 121.436L356.575 128.395L358.133 127.567ZM361.637 118.349L360.985 117.124L359.427 117.952L360.079 119.178L361.637 118.349ZM364.686 124.083L361.919 118.879L360.361 119.708L363.128 124.911L364.686 124.083ZM367.059 122.821L365.662 120.193C365.192 119.31 365.336 118.728 366.322 118.203C367.278 117.695 367.808 117.866 368.25 118.697L369.697 121.418L371.255 120.59L369.532 117.349C368.919 116.196 367.758 115.641 366.335 116.398C364.974 117.121 364.793 118.283 365.122 119.228L365.028 119.277L364.178 117.678L362.734 118.446L365.501 123.649L367.059 122.821ZM373.698 119.424C374.851 118.811 375.318 117.936 375.127 116.999L375.21 116.955L375.845 118.149L377.299 117.376L375.675 114.323C374.952 112.962 373.656 112.505 371.922 113.427C370.208 114.338 369.603 115.806 370.288 117.094L370.304 117.125L371.872 116.291L371.85 116.25C371.536 115.658 371.747 115.279 372.537 114.859C373.367 114.417 373.768 114.444 374.127 115.119L374.232 115.316L372.12 116.732C371.07 117.437 370.753 118.219 371.161 118.988C371.625 119.86 372.576 120.02 373.698 119.424ZM372.674 118.05C372.542 117.801 372.653 117.608 373.01 117.378L374.707 116.21C375.057 116.969 374.619 117.522 373.559 118.086C373.102 118.329 372.823 118.33 372.674 118.05ZM379.647 116.128L378.249 113.5C377.78 112.617 377.923 112.035 378.91 111.51C379.865 111.002 380.396 111.173 380.838 112.004L382.285 114.725L383.843 113.897L382.12 110.656C381.507 109.503 380.346 108.948 378.923 109.705C377.562 110.428 377.381 111.591 377.709 112.535L377.616 112.585L376.765 110.985L375.322 111.753L378.089 116.956L379.647 116.128ZM387.459 112.107C389.131 111.218 389.793 109.707 389.081 108.367L389.004 108.222L387.456 109.044L387.5 109.127C387.854 109.792 387.493 110.291 386.683 110.721C385.758 111.213 385.15 111.097 384.642 110.141C384.128 109.175 384.372 108.606 385.296 108.114C386.107 107.684 386.722 107.663 387.075 108.328L387.119 108.411L388.667 107.588L388.59 107.443C387.872 106.092 386.254 105.807 384.582 106.696C382.795 107.646 382.211 109.302 383.094 110.964C383.967 112.605 385.673 113.057 387.459 112.107ZM393.707 108.785C395.359 107.907 396.04 106.532 395.438 105.4L395.377 105.286L393.819 106.114L393.874 106.218C394.112 106.665 393.917 107.075 392.992 107.566C391.985 108.102 391.429 107.958 390.962 107.18L395.2 104.927C395.127 104.739 395.076 104.593 394.976 104.406C394.109 102.776 392.502 102.485 390.799 103.39C389.085 104.301 388.469 105.975 389.353 107.636C390.336 109.485 391.973 109.707 393.707 108.785ZM391.414 104.622C392.328 104.136 392.903 104.216 393.309 104.88L390.547 106.349C390.26 105.635 390.489 105.113 391.414 104.622Z" fill="white"/>
<path d="M370.837 141.537L365.27 144.497L361.57 137.538L367.137 134.578L367.673 135.585L363.227 137.949L364.265 139.901L368.555 137.621L369.085 138.618L364.796 140.899L365.856 142.893L370.301 140.529L370.837 141.537ZM375.699 138.951L374.11 139.796L367.439 134.417L368.769 133.71L374.277 138.255L374.36 138.211L373.65 131.114L374.97 130.413L375.699 138.951ZM384.713 134.159L379.146 137.119L375.445 130.16L381.013 127.2L381.548 128.207L377.103 130.571L378.141 132.524L382.431 130.243L382.961 131.24L378.671 133.521L379.732 135.515L384.177 133.151L384.713 134.159ZM386.708 133.098L385.586 133.694L381.886 126.735L385.501 124.813C387.079 123.974 388.453 124.203 389.144 125.501C389.757 126.654 389.374 127.763 388.104 128.532L388.143 128.605C388.76 128.463 389.175 128.642 389.656 128.946L391.891 130.342L390.603 131.027L388.47 129.696C387.866 129.311 387.422 129.254 386.55 129.718L385.272 130.397L386.708 133.098ZM383.544 127.146L384.814 129.535L387.296 128.215C388.231 127.718 388.527 127.148 388.063 126.275C387.61 125.424 386.961 125.329 386.026 125.826L383.544 127.146ZM396.138 128.084L395.026 128.675L393.751 126.276L388.273 123.34L389.644 122.611L392.599 124.21L393.65 124.784L393.733 124.739L393.835 123.553L394.151 120.214L395.533 119.479L394.873 125.705L396.138 128.084ZM403.124 124.369L402.012 124.96L398.848 119.009L396.106 120.467L395.57 119.459L402.155 115.958L402.691 116.966L399.959 118.418L403.124 124.369ZM407.633 121.972L406.511 122.568L402.811 115.609L403.933 115.013L405.501 117.963L409.594 115.787L408.025 112.837L409.137 112.246L412.837 119.205L411.725 119.796L410.129 116.794L406.037 118.97L407.633 121.972ZM415.007 118.051L413.885 118.647L410.185 111.688L411.307 111.092L415.007 118.051ZM417.168 116.902L416.046 117.499L412.346 110.54L413.551 109.899L418.831 112.314L420.425 113.132L420.508 113.087L419.788 111.858L417.601 107.745L418.723 107.149L422.423 114.108L421.218 114.748L415.922 112.355L414.398 111.593L414.315 111.638L414.997 112.82L417.168 116.902ZM426.715 111.959C424.669 113.047 422.557 112.358 421.403 110.187C420.248 108.016 420.962 105.825 423.185 104.643C425.158 103.594 427.059 103.862 427.915 105.472L427.959 105.555L426.723 106.212L426.679 106.129C426.149 105.132 425.166 104.962 423.722 105.73C422.05 106.619 421.664 107.823 422.587 109.558C423.509 111.292 424.707 111.641 426.338 110.774C427.999 109.89 428.411 109.085 427.787 107.912L427.737 107.818L425.161 109.188L424.708 108.336L428.396 106.376L430.284 109.928L429.266 110.469L428.466 108.963L428.393 109.002C428.643 110.174 428.075 111.236 426.715 111.959ZM434.127 107.885L433.005 108.481L429.305 101.522L430.427 100.926L434.127 107.885ZM438.139 105.885C436.062 106.989 434.517 106.638 433.738 105.174L433.705 105.112L434.827 104.515L434.915 104.681C435.357 105.512 436.066 105.668 437.593 104.856C438.922 104.149 439.235 103.61 438.887 102.956C438.567 102.353 438.092 102.313 437.121 102.616L435.268 103.241C433.984 103.657 432.866 103.559 432.259 102.417C431.723 101.409 432.013 99.9494 434.173 98.8007C436.209 97.7183 437.674 98.2446 438.398 99.6053L438.431 99.6676L437.319 100.259L437.248 100.123C436.795 99.2718 436.059 99.1166 434.616 99.8842C433.349 100.558 433.016 101.135 433.347 101.758C433.667 102.36 434.125 102.37 435.04 102.11L436.888 101.501C438.412 101.01 439.434 101.279 439.975 102.297C440.539 103.356 440.196 104.791 438.139 105.885ZM444.696 102.265L443.574 102.862L439.874 95.9027L445.41 92.9591L445.946 93.9666L441.531 96.3137L442.68 98.4741L446.938 96.2098L447.469 97.2069L443.21 99.4712L444.696 102.265ZM453.219 97.8666C451.142 98.9711 449.372 98.4997 448.367 96.6094L446.202 92.5379L447.314 91.9469L449.44 95.9457C450.185 97.3479 451.118 97.5982 452.645 96.7864C454.171 95.9746 454.485 95.0616 453.74 93.6594L451.614 89.6606L452.735 89.0642L454.9 93.1357C455.905 95.026 455.307 96.7565 453.219 97.8666ZM462.841 92.6173L457.429 95.4946L453.729 88.5356L454.851 87.9392L458.015 93.8906L462.305 91.6098L462.841 92.6173ZM468.977 89.3544L463.566 92.2317L459.866 85.2728L460.988 84.6763L464.152 90.6278L468.442 88.347L468.977 89.3544ZM473.275 87.0691L472.164 87.66L470.888 85.2607L465.41 82.3247L466.781 81.5957L469.737 83.1952L470.788 83.7687L470.871 83.7246L470.973 82.538L471.289 79.1989L472.67 78.4644L472.011 84.6906L473.275 87.0691ZM479.305 83.8633L478.058 84.526L477.464 75.9158L479.042 75.0764L485.848 80.3841L484.581 81.0578L482.82 79.6758L479.143 81.6308L479.305 83.8633ZM478.873 77.7645L479.054 80.3858L481.838 78.9058L479.766 77.2895L478.836 76.5182L478.753 76.5624L478.873 77.7645ZM489.642 78.4998C487.565 79.6043 485.796 79.1329 484.791 77.2426L482.626 73.1711L483.737 72.5802L485.863 76.579C486.609 77.9811 487.541 78.2314 489.068 77.4196C490.595 76.6078 490.909 75.6948 490.163 74.2926L488.037 70.2938L489.159 69.6974L491.324 73.7689C492.329 75.6592 491.73 77.3898 489.642 78.4998ZM497.312 74.2888L496.2 74.8797L493.036 68.9283L490.294 70.3862L489.758 69.3787L496.343 65.8774L496.879 66.8849L494.147 68.3373L497.312 74.2888ZM504.172 70.7744C501.991 71.9341 499.796 71.2892 498.642 69.1184C497.488 66.9476 498.18 64.7674 500.361 63.6077C502.563 62.4369 504.748 63.0874 505.902 65.2581C507.056 67.4289 506.374 69.6036 504.172 70.7744ZM503.598 69.6942C505.249 68.8161 505.64 67.6222 504.718 65.8877C503.796 64.1532 502.582 63.7994 500.93 64.6775C499.279 65.5556 498.904 66.7543 499.826 68.4888C500.748 70.2234 501.946 70.5723 503.598 69.6942ZM509.702 67.7005L508.581 68.297L504.881 61.338L506.407 60.5262L510.555 63.4903L511.956 64.5971L512.039 64.553L511.884 62.7834L511.725 57.6987L513.252 56.8868L516.952 63.8458L515.83 64.4422L513.561 60.1734L513.066 59.1438L512.983 59.188L513.093 60.4219L513.221 65.2969L511.87 66.0149L507.9 63.1832L506.938 62.4021L506.855 62.4463L507.433 63.4317L509.702 67.7005ZM518.72 62.9055L517.474 63.5683L516.879 54.9581L518.458 54.1186L525.264 59.4263L523.997 60.1001L522.236 58.7181L518.559 60.6731L518.72 62.9055ZM518.289 56.8067L518.47 59.4281L521.254 57.9481L519.182 56.3318L518.252 55.5604L518.169 55.6046L518.289 56.8067ZM529.242 57.3112L528.131 57.9021L524.966 51.9507L522.224 53.4086L521.688 52.4011L528.273 48.8998L528.809 49.9073L526.077 51.3597L529.242 57.3112ZM538.197 52.5497L532.63 55.5098L528.93 48.5509L534.497 45.5908L535.032 46.5983L530.587 48.9619L531.625 50.9146L535.915 48.6338L536.445 49.6309L532.155 51.9117L533.216 53.9059L537.661 51.5422L538.197 52.5497ZM542.301 50.3677L539.133 52.052L535.433 45.0931L538.601 43.4087C540.761 42.26 542.829 42.866 543.972 45.016C545.115 47.166 544.461 49.219 542.301 50.3677ZM539.136 44.4162L537.08 45.5097L539.709 50.4536L541.765 49.3602C543.375 48.5042 543.738 47.4321 542.788 45.6456C541.838 43.8591 540.746 43.5602 539.136 44.4162Z" fill="white"/>
<g clip-path="url(#clip1_2233_762)">
<path d="M110.062 265.476C108.149 266.492 105.775 265.767 104.759 263.854L103.054 260.649C102.927 260.41 102.864 260.291 102.848 260.176C102.821 259.985 102.88 259.792 103.009 259.648C103.086 259.563 103.206 259.499 103.444 259.372L108.702 256.577C108.94 256.45 109.06 256.386 109.174 256.37C109.365 256.343 109.559 256.402 109.702 256.532C109.788 256.609 109.851 256.728 109.978 256.967L111.683 260.173C112.699 262.085 111.974 264.459 110.062 265.476ZM110.062 265.476L110.982 267.207M110.149 257.288L111.591 256.521C111.86 256.378 111.995 256.306 112.124 256.294C112.297 256.277 112.469 256.33 112.602 256.44C112.703 256.523 112.774 256.657 112.917 256.926L113.07 257.214C113.356 257.751 113.498 258.019 113.557 258.271C113.714 258.953 113.496 259.668 112.983 260.146C112.795 260.322 112.526 260.464 111.99 260.75M103.224 260.969L101.782 261.736C101.513 261.879 101.379 261.951 101.296 262.051C101.186 262.185 101.133 262.357 101.15 262.529C101.162 262.659 101.234 262.793 101.377 263.062L101.53 263.351C101.815 263.887 101.958 264.156 102.134 264.344C102.612 264.857 103.326 265.075 104.009 264.917C104.26 264.859 104.529 264.717 105.065 264.431M109.581 270.913L114.838 268.117C114.979 268.042 115.033 267.866 114.958 267.724C114.355 266.591 112.949 266.161 111.815 266.764L110.148 267.65C109.015 268.252 108.585 269.659 109.188 270.792C109.263 270.934 109.439 270.988 109.581 270.913Z" stroke="#F03E39" stroke-width="1.30704" stroke-linecap="round" stroke-linejoin="round"/>
</g>
<circle cx="109.141" cy="263.745" r="15.3578" transform="rotate(-28 109.141 263.745)" stroke="#F03E39" stroke-width="0.653521"/>
<path d="M131.427 245.894L131.274 244.003L134.754 242.153L136.226 243.343L138.012 242.393L131.248 237.063L129.025 238.245L129.682 246.822L131.427 245.894ZM130.979 240.417L130.831 239.11L130.945 239.049L131.945 239.903L133.406 241.071L131.131 242.281L130.979 240.417ZM141.204 240.829C142.876 239.94 143.538 238.429 142.826 237.089L142.748 236.943L141.201 237.766L141.245 237.849C141.598 238.514 141.237 239.012 140.427 239.443C139.503 239.935 138.895 239.818 138.387 238.863C137.873 237.897 138.117 237.328 139.041 236.836C139.851 236.405 140.466 236.385 140.82 237.05L140.864 237.133L142.412 236.31L142.334 236.164C141.616 234.814 139.999 234.528 138.327 235.417C136.54 236.367 135.955 238.024 136.839 239.686C137.712 241.327 139.417 241.779 141.204 240.829ZM146.192 238.044L144.805 235.437C144.342 234.564 144.437 233.967 145.486 233.409C146.462 232.89 147.002 233.003 147.466 233.875L148.913 236.597L150.471 235.768L148.775 232.58C148.135 231.375 146.963 230.825 145.561 231.571C144.232 232.278 144.05 233.414 144.353 234.385L144.27 234.429L142.492 231.085L140.934 231.913L144.634 238.872L146.192 238.044ZM149.767 228.789L149.115 227.563L147.557 228.391L148.209 229.617L149.767 228.789ZM152.815 234.522L150.048 229.318L148.49 230.147L151.257 235.35L152.815 234.522ZM156.449 232.723C158.1 231.845 158.781 230.47 158.179 229.338L158.119 229.224L156.561 230.052L156.616 230.156C156.853 230.603 156.658 231.013 155.734 231.504C154.726 232.04 154.17 231.896 153.703 231.118L157.941 228.865C157.868 228.678 157.817 228.532 157.718 228.345C156.851 226.714 155.244 226.423 153.54 227.328C151.826 228.24 151.21 229.913 152.094 231.574C153.077 233.423 154.714 233.645 156.449 232.723ZM154.155 228.56C155.069 228.074 155.645 228.154 156.051 228.818L153.288 230.287C153.002 229.573 153.231 229.052 154.155 228.56ZM163.732 228.717L163.344 222.249L161.641 223.154L162.033 227.675L161.929 227.731L158.411 224.872L156.676 225.794L161.811 229.739L163.732 228.717ZM169.34 225.868C170.992 224.99 171.673 223.616 171.071 222.483L171.01 222.369L169.452 223.198L169.508 223.301C169.745 223.748 169.55 224.158 168.626 224.65C167.618 225.185 167.062 225.041 166.595 224.264L170.833 222.011C170.76 221.823 170.709 221.677 170.609 221.49C169.742 219.859 168.135 219.568 166.432 220.474C164.718 221.385 164.102 223.058 164.986 224.72C165.969 226.569 167.606 226.791 169.34 225.868ZM167.047 221.705C167.961 221.219 168.537 221.3 168.943 221.963L166.18 223.432C165.893 222.718 166.123 222.197 167.047 221.705ZM174.308 223.094L172.911 220.466C172.43 219.562 172.502 219.045 173.447 218.542C174.34 218.067 174.812 218.229 175.271 219.091L176.718 221.813L178.276 220.984L176.879 218.356C176.398 217.453 176.469 216.935 177.414 216.433C178.308 215.958 178.78 216.12 179.238 216.982L180.685 219.703L182.243 218.875L180.52 215.634C179.891 214.45 178.767 213.915 177.427 214.627C176.087 215.34 175.994 216.442 176.339 217.391L176.245 217.441C175.617 216.536 174.612 216.124 173.408 216.765C172.099 217.46 172.01 218.547 172.35 219.485L172.266 219.53L171.427 217.951L169.983 218.719L172.75 223.922L174.308 223.094ZM185.853 217.088C187.505 216.21 188.186 214.836 187.584 213.703L187.523 213.589L185.965 214.418L186.02 214.521C186.258 214.968 186.063 215.378 185.139 215.87C184.131 216.405 183.575 216.261 183.108 215.484L187.346 213.23C187.273 213.043 187.222 212.897 187.122 212.71C186.255 211.079 184.648 210.788 182.945 211.694C181.231 212.605 180.615 214.278 181.499 215.94C182.482 217.789 184.119 218.011 185.853 217.088ZM183.56 212.925C184.474 212.439 185.049 212.52 185.455 213.183L182.693 214.652C182.406 213.938 182.635 213.417 183.56 212.925ZM190.821 214.314L189.424 211.686C188.954 210.803 189.098 210.221 190.084 209.696C191.04 209.188 191.57 209.359 192.012 210.19L193.459 212.911L195.017 212.083L193.294 208.842C192.681 207.689 191.52 207.134 190.097 207.891C188.736 208.614 188.555 209.776 188.884 210.721L188.79 210.77L187.94 209.171L186.496 209.939L189.263 215.142L190.821 214.314ZM199.472 209.714L198.726 208.312L197.791 208.809C197.241 209.102 196.972 209.072 196.696 208.552L195.707 206.693L197.39 205.798L196.705 204.51L195.022 205.405L194.487 204.398L192.929 205.226L193.464 206.234L192.644 206.67L193.329 207.958L194.149 207.521L195.231 209.557C195.927 210.866 196.968 211.045 198.184 210.399L199.472 209.714ZM202.738 208.11C204.348 207.254 204.972 206.097 204.452 205.121C203.994 204.259 203.226 204.067 201.752 204.651L200.568 205.107C199.839 205.389 199.633 205.352 199.489 205.082C199.312 204.749 199.438 204.509 200.217 204.095C201.172 203.587 201.496 203.695 201.723 204.121L201.756 204.183L203.314 203.355L203.297 203.323C202.623 202.056 201.315 201.926 199.612 202.832C197.825 203.782 197.433 204.923 197.919 205.837C198.383 206.709 199.213 206.867 200.312 206.429L201.871 205.827C202.528 205.585 202.727 205.585 202.882 205.876C203.048 206.187 202.922 206.427 202.091 206.869C201.208 207.338 200.851 207.368 200.603 206.901L200.553 206.808L198.995 207.636L199.012 207.667C199.652 208.872 200.983 209.044 202.738 208.11Z" fill="white"/>
<path d="M142.833 260.554L138.792 262.702L135.092 255.744L138.987 253.673C140.316 252.966 141.442 253.153 142.027 254.254C142.464 255.075 142.333 255.931 141.339 256.618L141.378 256.691C142.634 256.197 143.558 256.531 144.044 257.445C144.679 258.64 144.266 259.792 142.833 260.554ZM136.739 256.16L137.755 258.071L140.383 256.674C141.162 256.26 141.397 255.749 141.049 255.094C140.701 254.44 140.177 254.332 139.398 254.746L136.739 256.16ZM138.247 258.996L139.368 261.104L142.172 259.613C143.003 259.171 143.243 258.644 142.839 257.886C142.453 257.159 141.872 257.068 141.051 257.505L138.247 258.996ZM151.359 256.02L145.792 258.981L142.092 252.022L147.659 249.062L148.195 250.069L143.749 252.433L144.788 254.385L149.077 252.104L149.607 253.102L145.318 255.382L146.378 257.377L150.824 255.013L151.359 256.02ZM155.207 254.108C153.129 255.212 151.584 254.862 150.805 253.397L150.772 253.335L151.894 252.738L151.982 252.905C152.424 253.736 153.133 253.891 154.66 253.08C155.989 252.373 156.302 251.833 155.954 251.179C155.634 250.577 155.159 250.536 154.188 250.839L152.336 251.464C151.052 251.881 149.933 251.782 149.326 250.64C148.79 249.632 149.08 248.173 151.24 247.024C153.276 245.942 154.742 246.468 155.465 247.829L155.498 247.891L154.387 248.482L154.315 248.347C153.862 247.495 153.127 247.34 151.683 248.108C150.416 248.781 150.083 249.358 150.415 249.981C150.735 250.584 151.193 250.593 152.107 250.333L153.955 249.724C155.479 249.233 156.502 249.502 157.043 250.52C157.606 251.58 157.263 253.014 155.207 254.108ZM162.325 250.19L161.214 250.781L158.049 244.829L155.307 246.287L154.772 245.28L161.357 241.778L161.892 242.786L159.161 244.238L162.325 250.19ZM170.385 245.904L169.263 246.501L165.563 239.542L171.099 236.598L171.635 237.606L167.22 239.953L168.369 242.113L172.627 239.849L173.158 240.846L168.899 243.11L170.385 245.904ZM176.755 242.517L175.633 243.114L171.933 236.155L175.547 234.233C177.126 233.394 178.5 233.622 179.19 234.921C179.803 236.074 179.421 237.183 178.151 237.952L178.189 238.024C178.807 237.883 179.222 238.062 179.703 238.365L181.937 239.762L180.65 240.447L178.516 239.116C177.912 238.731 177.469 238.674 176.596 239.138L175.319 239.817L176.755 242.517ZM173.59 236.566L174.86 238.955L177.343 237.635C178.278 237.138 178.574 236.568 178.11 235.695C177.657 234.843 177.007 234.749 176.073 235.246L173.59 236.566ZM188.178 236.443L182.611 239.403L178.911 232.445L184.478 229.484L185.014 230.492L180.569 232.856L181.607 234.808L185.896 232.527L186.427 233.525L182.137 235.805L183.197 237.8L187.643 235.436L188.178 236.443ZM194.619 233.019L189.052 235.979L185.352 229.02L190.919 226.06L191.455 227.067L187.009 229.431L188.048 231.384L192.337 229.103L192.867 230.1L188.578 232.381L189.638 234.375L194.084 232.011L194.619 233.019ZM198.39 231.014L197.268 231.61L193.568 224.651L196.975 222.84C198.522 222.017 200.051 222.337 200.874 223.884C201.691 225.421 201.107 226.878 199.559 227.701L197.274 228.916L198.39 231.014ZM197.406 223.903L195.225 225.062L196.738 227.908L198.92 226.749C199.969 226.191 200.299 225.509 199.752 224.481C199.205 223.452 198.455 223.345 197.406 223.903ZM205.074 227.46L203.952 228.056L200.252 221.097L203.867 219.176C205.445 218.336 206.819 218.565 207.51 219.863C208.123 221.016 207.74 222.125 206.47 222.894L206.509 222.967C207.126 222.825 207.541 223.004 208.022 223.308L210.257 224.704L208.969 225.389L206.836 224.058C206.232 223.673 205.788 223.616 204.916 224.08L203.638 224.759L205.074 227.46ZM201.909 221.508L203.18 223.897L205.662 222.577C206.597 222.08 206.893 221.51 206.429 220.637C205.976 219.786 205.327 219.691 204.392 220.189L201.909 221.508ZM216.498 221.386L210.931 224.346L207.23 217.387L212.798 214.427L213.333 215.434L208.888 217.798L209.926 219.751L214.216 217.47L214.746 218.467L210.456 220.748L211.517 222.742L215.962 220.378L216.498 221.386ZM218.493 220.325L217.371 220.921L213.671 213.962L215.198 213.15L219.345 216.115L220.747 217.221L220.83 217.177L220.675 215.408L220.516 210.323L222.043 209.511L225.743 216.47L224.621 217.066L222.351 212.798L221.857 211.768L221.774 211.812L221.884 213.046L222.011 217.921L220.661 218.639L216.691 215.807L215.729 215.026L215.646 215.07L216.223 216.056L218.493 220.325ZM227.906 215.32L226.784 215.916L223.084 208.957L224.206 208.361L227.906 215.32ZM232.22 213.159C230.142 214.264 228.373 213.793 227.368 211.902L225.203 207.831L226.314 207.24L228.44 211.239C229.186 212.641 230.118 212.891 231.645 212.079C233.172 211.267 233.486 210.354 232.74 208.952L230.614 204.953L231.736 204.357L233.901 208.429C234.906 210.319 234.307 212.049 232.22 213.159ZM237.552 210.191L236.43 210.787L232.73 203.829L234.257 203.017L238.404 205.981L239.805 207.088L239.888 207.043L239.734 205.274L239.575 200.189L241.101 199.377L244.802 206.336L243.68 206.933L241.41 202.664L240.916 201.634L240.833 201.678L240.943 202.912L241.07 207.787L239.72 208.505L235.749 205.674L234.788 204.893L234.705 204.937L235.282 205.922L237.552 210.191ZM248.74 204.242L247.618 204.839L243.918 197.88L249.454 194.936L249.989 195.944L245.575 198.291L246.724 200.451L250.982 198.187L251.512 199.184L247.254 201.448L248.74 204.242ZM259.555 198.492L253.988 201.452L250.288 194.493L255.855 191.533L256.39 192.54L251.945 194.904L252.983 196.857L257.273 194.576L257.803 195.573L253.513 197.854L254.574 199.848L259.019 197.484L259.555 198.492ZM261.156 197.641L259.909 198.303L259.315 189.693L260.893 188.854L267.699 194.161L266.432 194.835L264.671 193.453L260.994 195.408L261.156 197.641ZM260.724 191.542L260.905 194.163L263.689 192.683L261.617 191.067L260.687 190.296L260.604 190.34L260.724 191.542ZM271.677 192.046L270.566 192.637L267.401 186.686L264.659 188.144L264.124 187.136L270.709 183.635L271.244 184.642L268.513 186.095L271.677 192.046ZM278.34 188.637C276.263 189.741 274.493 189.27 273.488 187.38L271.323 183.308L272.435 182.717L274.561 186.716C275.306 188.118 276.239 188.368 277.766 187.557C279.292 186.745 279.606 185.832 278.861 184.43L276.735 180.431L277.856 179.834L280.021 183.906C281.026 185.796 280.428 187.527 278.34 188.637ZM283.672 185.668L282.55 186.265L278.85 179.306L282.465 177.384C284.044 176.545 285.417 176.773 286.108 178.072C286.721 179.225 286.338 180.334 285.068 181.103L285.107 181.175C285.724 181.033 286.139 181.213 286.62 181.516L288.855 182.913L287.567 183.597L285.434 182.267C284.83 181.882 284.386 181.825 283.514 182.289L282.236 182.968L283.672 185.668ZM280.508 179.717L281.778 182.106L284.26 180.786C285.195 180.289 285.491 179.718 285.027 178.846C284.575 177.994 283.925 177.9 282.99 178.397L280.508 179.717ZM295.096 179.594L289.529 182.554L285.829 175.595L291.396 172.635L291.932 173.643L287.486 176.006L288.524 177.959L292.814 175.678L293.344 176.675L289.055 178.956L290.115 180.95L294.56 178.587L295.096 179.594ZM298.943 177.682C296.866 178.786 295.321 178.436 294.542 176.971L294.509 176.909L295.631 176.312L295.719 176.478C296.161 177.309 296.87 177.465 298.397 176.653C299.726 175.947 300.039 175.407 299.691 174.753C299.371 174.15 298.896 174.11 297.925 174.413L296.072 175.038C294.788 175.455 293.67 175.356 293.063 174.214C292.527 173.206 292.817 171.747 294.977 170.598C297.013 169.516 298.478 170.042 299.202 171.402L299.235 171.465L298.124 172.056L298.052 171.921C297.599 171.069 296.864 170.914 295.42 171.681C294.153 172.355 293.82 172.932 294.151 173.555C294.472 174.157 294.93 174.167 295.844 173.907L297.692 173.298C299.216 172.807 300.238 173.076 300.78 174.094C301.343 175.154 301 176.588 298.943 177.682Z" fill="white"/>
<line x1="308.912" y1="137.725" x2="307.498" y2="178.219" stroke="white" stroke-width="0.653522"/>
<path d="M470.302 267.298H468.538V261.605H466.515V260.393H466.844C467.714 260.393 468.303 260.193 468.691 259.417H470.302V267.298ZM475.009 267.416C472.468 267.416 471.068 265.816 471.068 263.358C471.068 260.911 472.468 259.299 475.009 259.299C477.538 259.299 478.949 260.911 478.949 263.358C478.949 265.816 477.538 267.416 475.009 267.416ZM475.009 265.699C476.503 265.699 477.055 265.052 477.055 263.358C477.055 261.664 476.503 261.017 475.009 261.017C473.503 261.017 472.962 261.664 472.962 263.358C472.962 265.052 473.503 265.699 475.009 265.699ZM483.464 267.416C480.923 267.416 479.523 265.816 479.523 263.358C479.523 260.911 480.923 259.299 483.464 259.299C485.993 259.299 487.404 260.911 487.404 263.358C487.404 265.816 485.993 267.416 483.464 267.416ZM483.464 265.699C484.957 265.699 485.51 265.052 485.51 263.358C485.51 261.664 484.957 261.017 483.464 261.017C481.958 261.017 481.417 261.664 481.417 263.358C481.417 265.052 481.958 265.699 483.464 265.699ZM489.93 263.216C488.625 263.216 487.86 262.428 487.86 261.252C487.86 260.076 488.625 259.276 489.93 259.276C491.248 259.276 492.013 260.076 492.013 261.252C492.013 262.428 491.248 263.216 489.93 263.216ZM489.978 267.298H488.272L494.965 259.417H496.671L489.978 267.298ZM489.93 262.064C490.554 262.064 490.754 261.84 490.754 261.252C490.754 260.664 490.554 260.429 489.93 260.429C489.319 260.429 489.119 260.664 489.119 261.252C489.119 261.84 489.319 262.064 489.93 262.064ZM495 267.428C493.695 267.428 492.918 266.64 492.918 265.463C492.918 264.287 493.695 263.499 495 263.499C496.306 263.499 497.083 264.287 497.083 265.463C497.083 266.64 496.306 267.428 495 267.428ZM495 266.275C495.612 266.275 495.824 266.051 495.824 265.463C495.824 264.875 495.612 264.64 495 264.64C494.389 264.64 494.177 264.875 494.177 265.463C494.177 266.051 494.389 266.275 495 266.275ZM501.314 267.298H499.55V259.417H506.22V261.005H501.314V262.781H506.043V264.357H501.314V267.298ZM508.736 267.298H506.971V259.417H511.323C513.264 259.417 514.37 260.276 514.37 261.781C514.37 263.064 513.629 263.828 512.147 263.969V264.063C512.853 264.252 513.123 264.628 513.417 265.181L514.558 267.298H512.512L511.429 265.252C511.112 264.64 510.818 264.44 509.9 264.44H508.736V267.298ZM508.736 261.005V263.111H511.312C512.147 263.111 512.523 262.875 512.523 262.052C512.523 261.275 512.147 261.005 511.312 261.005H508.736ZM521.786 267.298H515.116V259.417H521.786V261.005H516.88V262.546H521.609V264.122H516.88V265.71H521.786V267.298ZM529.253 267.298H522.583V259.417H529.253V261.005H524.347V262.546H529.076V264.122H524.347V265.71H529.253V267.298Z" fill="black"/>
<path d="M467.582 285.904H466.772V280.879H467.642L469.892 283.819L470.544 284.756H470.604L470.567 283.849V280.879H471.377V285.904H470.507L468.242 282.971L467.612 282.086H467.552L467.582 282.956V285.904ZM474.593 285.979C473.018 285.979 471.976 284.959 471.976 283.391C471.976 281.824 473.018 280.804 474.593 280.804C476.183 280.804 477.218 281.824 477.218 283.391C477.218 284.959 476.183 285.979 474.593 285.979ZM474.593 285.199C475.786 285.199 476.363 284.644 476.363 283.391C476.363 282.139 475.786 281.576 474.593 281.576C473.401 281.576 472.831 282.139 472.831 283.391C472.831 284.644 473.401 285.199 474.593 285.199ZM479.909 285.904H479.099V280.879H479.909V283.009H482.864V280.879H483.666V285.904H482.864V283.736H479.909V285.904ZM485.233 285.904H484.423V280.879H485.233V285.904ZM488.316 285.904H486.028V280.879H488.316C489.876 280.879 490.858 281.839 490.858 283.391C490.858 284.944 489.876 285.904 488.316 285.904ZM488.316 281.606H486.831V285.176H488.316C489.478 285.176 490.003 284.681 490.003 283.391C490.003 282.101 489.478 281.606 488.316 281.606ZM493.794 285.904H491.507V280.879H493.794C495.354 280.879 496.337 281.839 496.337 283.391C496.337 284.944 495.354 285.904 493.794 285.904ZM493.794 281.606H492.309V285.176H493.794C494.957 285.176 495.482 284.681 495.482 283.391C495.482 282.101 494.957 281.606 493.794 281.606ZM500.96 285.904H496.94V280.879H500.96V281.606H497.75V283.016H500.848V283.736H497.75V285.176H500.96V285.904ZM502.401 285.904H501.591V280.879H502.461L504.711 283.819L505.364 284.756H505.424L505.386 283.849V280.879H506.196V285.904H505.326L503.061 282.971L502.431 282.086H502.371L502.401 282.956V285.904ZM509.037 285.904H508.227V280.879H512.225V281.606H509.037V283.166H512.112V283.886H509.037V285.904ZM516.847 285.904H512.827V280.879H516.847V281.606H513.637V283.016H516.734V283.736H513.637V285.176H516.847V285.904ZM521.498 285.904H517.478V280.879H521.498V281.606H518.288V283.016H521.385V283.736H518.288V285.176H521.498V285.904ZM524.236 285.979C522.736 285.979 521.971 285.319 521.971 284.261V284.216H522.781V284.336C522.781 284.936 523.133 285.236 524.236 285.236C525.196 285.236 525.533 285.026 525.533 284.554C525.533 284.119 525.278 283.954 524.641 283.834L523.411 283.631C522.563 283.481 521.963 283.091 521.963 282.266C521.963 281.539 522.563 280.804 524.123 280.804C525.593 280.804 526.261 281.539 526.261 282.521V282.566H525.458V282.469C525.458 281.854 525.091 281.546 524.048 281.546C523.133 281.546 522.773 281.771 522.773 282.221C522.773 282.656 523.028 282.799 523.621 282.926L524.843 283.136C525.848 283.316 526.343 283.774 526.343 284.509C526.343 285.274 525.721 285.979 524.236 285.979ZM529.01 285.904H528.2V280.879H532.198V281.606H529.01V283.166H532.085V283.886H529.01V285.904ZM535.267 285.979C533.692 285.979 532.65 284.959 532.65 283.391C532.65 281.824 533.692 280.804 535.267 280.804C536.857 280.804 537.892 281.824 537.892 283.391C537.892 284.959 536.857 285.979 535.267 285.979ZM535.267 285.199C536.46 285.199 537.037 284.644 537.037 283.391C537.037 282.139 536.46 281.576 535.267 281.576C534.075 281.576 533.505 282.139 533.505 283.391C533.505 284.644 534.075 285.199 535.267 285.199ZM539.301 285.904H538.491V280.879H541.101C542.241 280.879 542.946 281.419 542.946 282.356C542.946 283.189 542.398 283.699 541.453 283.751V283.804C541.843 283.909 542.023 284.134 542.203 284.449L543.043 285.904H542.113L541.311 284.516C541.086 284.119 540.853 283.954 540.223 283.954H539.301V285.904ZM539.301 281.606V283.331H541.093C541.768 283.331 542.106 283.099 542.106 282.469C542.106 281.854 541.768 281.606 541.093 281.606H539.301ZM545.622 285.904H544.812V280.879H547.272C548.389 280.879 549.154 281.516 549.154 282.634C549.154 283.744 548.389 284.389 547.272 284.389H545.622V285.904ZM547.197 281.606H545.622V283.661H547.197C547.954 283.661 548.344 283.376 548.344 282.634C548.344 281.891 547.954 281.606 547.197 281.606ZM550.448 285.904H549.638V280.879H552.248C553.388 280.879 554.093 281.419 554.093 282.356C554.093 283.189 553.546 283.699 552.601 283.751V283.804C552.991 283.909 553.171 284.134 553.351 284.449L554.191 285.904H553.261L552.458 284.516C552.233 284.119 552.001 283.954 551.371 283.954H550.448V285.904ZM550.448 281.606V283.331H552.241C552.916 283.331 553.253 283.099 553.253 282.469C553.253 281.854 552.916 281.606 552.241 281.606H550.448ZM557.145 285.979C555.57 285.979 554.527 284.959 554.527 283.391C554.527 281.824 555.57 280.804 557.145 280.804C558.735 280.804 559.77 281.824 559.77 283.391C559.77 284.959 558.735 285.979 557.145 285.979ZM557.145 285.199C558.337 285.199 558.915 284.644 558.915 283.391C558.915 282.139 558.337 281.576 557.145 281.576C555.952 281.576 555.382 282.139 555.382 283.391C555.382 284.644 555.952 285.199 557.145 285.199ZM562.476 285.979C560.976 285.979 560.211 285.319 560.211 284.261V284.216H561.021V284.336C561.021 284.936 561.373 285.236 562.476 285.236C563.436 285.236 563.773 285.026 563.773 284.554C563.773 284.119 563.518 283.954 562.881 283.834L561.651 283.631C560.803 283.481 560.203 283.091 560.203 282.266C560.203 281.539 560.803 280.804 562.363 280.804C563.833 280.804 564.501 281.539 564.501 282.521V282.566H563.698V282.469C563.698 281.854 563.331 281.546 562.288 281.546C561.373 281.546 561.013 281.771 561.013 282.221C561.013 282.656 561.268 282.799 561.861 282.926L563.083 283.136C564.088 283.316 564.583 283.774 564.583 284.509C564.583 285.274 563.961 285.979 562.476 285.979Z" fill="black"/>
<path d="M59.7244 330.79L58.4157 316.545L88.2862 300.663L99.2698 309.763L119.559 298.975L58.856 250.524L33.5882 263.96L39.9047 341.328L59.7244 330.79ZM55.6128 286.347L54.0082 273.585L55.2293 272.936L65.0061 281.353L73.3642 288.234L56.6443 297.124L55.6128 286.347Z" fill="black"/>
<defs>
<filter id="filter0_f_2233_762" x="203.035" y="108.421" width="313.025" height="318.499" filterUnits="userSpaceOnUse" color-interpolation-filters="sRGB">
<feFlood flood-opacity="0" result="BackgroundImageFix"/>
<feBlend mode="normal" in="SourceGraphic" in2="BackgroundImageFix" result="shape"/>
<feGaussianBlur stdDeviation="65.3521" result="effect1_foregroundBlur_2233_762"/>
</filter>
<clipPath id="clip0_2233_762">
<rect width="15.6845" height="15.6845" fill="white" transform="translate(324.96 142.324) rotate(-28)"/>
</clipPath>
<clipPath id="clip1_2233_762">
<rect width="15.6845" height="15.6845" fill="white" transform="translate(98.5347 260.502) rotate(-28)"/>
</clipPath>
</defs>
</svg>
